# xmcd
#
# Track frame offsets:
#	150
#	11614
#	21219
#	32166
#	40577
#	50058
#	61432
#	74967
#	86460
#	97287
#	106288
#
# Disc length: 1602 seconds
#
# Revision: 1
# Processed by: cddbd v1.5.2PL0 Copyright (c) Steve Scherf et al.
# Submitted via: audiograbber 1.83.01
#
DISCID=9906400b
DTITLE=Boots Randolph - Boots And Stockings
DYEAR=1969
DGENRE=Christmas
TTITLE0=Medley
TTITLE1=Rudolph The Red Nosed Reindeer
TTITLE2=Jingle Bells
TTITLE3=Frosty The Snowman
TTITLE4=Sleigh Ride
TTITLE5=White Christmas
TTITLE6=The Christmas Song
TTITLE7=Have Yourself A Merry Christmas
TTITLE8=Silver Bells
TTITLE9=I'll Be Home For Christmas
TTITLE10=Greensleeves
EXTD=
EXTT0=
EXTT1=
EXTT2=
EXTT3=
EXTT4=
EXTT5=
EXTT6=
EXTT7=
EXTT8=
EXTT9=
EXTT10=
PLAYORDER=
